<?xml version="1.0" encoding="UTF-8" standalone="no"?><!DOCTYPE svg PUBLIC "-//W3C//DTD SVG 1.1//EN" "http://www.w3.org/Graphics/SVG/1.1/DTD/svg11.dtd"><svg width="100%" height="100%" viewBox="0 0 708 79" version="1.1" xmlns="http://www.w3.org/2000/svg" xmlns:xlink="http://www.w3.org/1999/xlink" xml:space="preserve" xmlns:serif="http://www.serif.com/" style="fill-rule:evenodd;clip-rule:evenodd;stroke-linejoin:round;stroke-miterlimit:2;"><g><g><path d="M2.446,2.443l44.634,0c3.231,0 5.979,1.133 8.246,3.4c2.267,2.267 3.4,4.99 3.4,8.168l0,33.143c0,3.179 -1.133,5.902 -3.4,8.168c-2.267,2.267 -5.015,3.401 -8.246,3.401l-44.634,0l0,-56.28Zm12.116,12.194l0,31.892l31.892,0l0,-31.892l-31.892,0Z" style="fill:none;fill-rule:nonzero;stroke:#3b3b3b;stroke-width:4.89px;"/><path d="M127.683,14.09l0,14.539c0,3.178 -1.146,5.901 -3.439,8.168c-2.293,2.267 -5.029,3.4 -8.208,3.4l-0.547,0l12.194,14.383l0,4.143l-12.507,0l-15.555,-18.526l-16.102,0.078c0.156,0 0.234,0.157 0.234,0.469c-0.104,0 -0.182,-0.026 -0.234,-0.078l0,18.057l-12.116,0l0,-56.202l44.633,0c3.179,0 5.915,1.133 8.208,3.4c2.293,2.267 3.439,4.99 3.439,8.169Zm-44.164,0.547l0,13.366l31.892,0l0,-13.366l-31.892,0Z" style="fill:none;fill-rule:nonzero;stroke:#3b3b3b;stroke-width:4.89px;"/><path d="M152.475,2.443l0,44.086l31.892,0l0,-44.086l12.272,0l0,44.711c0,3.179 -1.133,5.902 -3.4,8.168c-2.267,2.267 -4.989,3.401 -8.168,3.401l-33.143,0c-3.231,0 -5.967,-1.121 -8.207,-3.361c-2.241,-2.241 -3.362,-4.977 -3.362,-8.208l0,-44.711l12.116,0Z" style="fill:none;fill-rule:nonzero;stroke:#3b3b3b;stroke-width:4.89px;"/><path d="M240.895,25.189l18.995,-22.746l12.585,0l0,56.28l-12.194,0l0,-37.755l-19.386,23.138l-19.463,-23.06l0,37.677l-12.116,0l0,-56.28l12.507,0l19.072,22.746Z" style="fill:none;fill-rule:nonzero;stroke:#3b3b3b;stroke-width:4.89px;"/><path d="M333.135,25.192l18.994,-22.747l12.585,0l0,56.28l-12.194,0l0,-37.754l-19.385,23.137l-19.464,-23.059l0,37.676l-12.116,0l0,-56.28l12.507,0l19.073,22.747Z" style="fill:#3b3b3b;fill-rule:nonzero;"/><path d="M385.819,2.445l33.065,0c3.204,0 6.018,1.095 8.285,3.361c2.189,2.267 3.361,5.003 3.361,8.208l0,44.711l-12.272,0l0,-18.134l-31.892,0l0,18.134l-12.116,0l0,-44.711c0,-3.205 1.095,-5.941 3.362,-8.208c2.266,-2.266 5.002,-3.361 8.207,-3.361Zm0.547,25.952l31.892,0l0,-13.758l-31.892,0l0,13.758Z" style="fill:#3b3b3b;fill-rule:nonzero;"/><path d="M495.565,14.639l-44.008,0l0,31.892l44.008,0l0,12.194l-44.555,0c-3.205,0 -5.941,-1.094 -8.207,-3.361c-2.267,-2.267 -3.362,-5.003 -3.362,-8.207l0,-33.143c0,-3.205 1.095,-5.941 3.362,-8.208c2.266,-2.266 5.002,-3.361 8.207,-3.361l44.555,0l0,12.194Z" style="fill:#3b3b3b;fill-rule:nonzero;"/><path d="M549.109,2.445l12.116,0l0,56.28l-12.116,0l0,-22.043l-33.221,0l0,22.043l-12.115,0l0,-56.28l12.115,0l0,22.043l33.221,0l0,-22.043Z" style="fill:#3b3b3b;fill-rule:nonzero;"/><rect x="570.136" y="2.445" width="12.194" height="56.28" style="fill:#3b3b3b;"/><path d="M634.262,39.965l0,-37.52l12.273,0l0,56.28l-12.507,0l-31.658,-37.676l0,37.676l-12.115,0l0,-56.28l12.506,0l31.501,37.52Z" style="fill:#3b3b3b;fill-rule:nonzero;"/><path d="M707.426,2.445l0,12.194l-39.708,0l0,9.849l31.97,0l0,12.194l-31.97,0l0,9.849l39.708,0l0,12.194l-51.98,0l0,-56.28l51.98,0Z" style="fill:#3b3b3b;fill-rule:nonzero;"/></g><rect x="0" y="72.448" width="702.952" height="6.092" style="fill:#3b3b3b;"/><rect x="288" y="72.448" width="419.426" height="6.092" style="fill:#cf3838;"/></g></svg>