<?xml version="1.0" encoding="UTF-8" standalone="no"?><!DOCTYPE svg PUBLIC "-//W3C//DTD SVG 1.1//EN" "http://www.w3.org/Graphics/SVG/1.1/DTD/svg11.dtd"><svg width="100%" height="100%" viewBox="0 0 13 11" version="1.1" xmlns="http://www.w3.org/2000/svg" xmlns:xlink="http://www.w3.org/1999/xlink" xml:space="preserve" xmlns:serif="http://www.serif.com/" style="fill-rule:evenodd;clip-rule:evenodd;stroke-linejoin:round;stroke-miterlimit:2;"><path id="Repeat-Icon" serif:id="Repeat Icon" d="M10.75,9.25l-8,0l0,1.5l-2.5,-2.25l2.5,-2.25l0,1.5l6.5,0c0.828,0 1.5,-0.671 1.5,-1.5l0,-1l1.5,-1.35l0,3.85c0,0.828 -0.672,1.5 -1.5,1.5Zm-1,-6l-6.5,0c-0.828,0 -1.5,0.672 -1.5,1.5l0,1l-1.5,1.35l0,-3.85c0,-0.828 0.672,-1.5 1.5,-1.5l8,0l0,-1.5l2.5,2.25l-2.5,2.25l0,-1.5Z" style="fill:none;stroke:#3b3b3b;stroke-width:0.5px;"/></svg>