<svg xmlns="http://www.w3.org/2000/svg" viewBox="0 0 16 16">
  <title>loop arrow</title>
  <path d="M3.08,9.23A3.494,3.494,0,0,1,6.5,5H7V6.5a.5.5,0,0,0,.31.46.474.474,0,0,0,.54-.11l3-3a.483.483,0,0,0,0-.7l-3-3A.474.474,0,0,0,7.31.04.5.5,0,0,0,7,.5V2H6.5A6.507,6.507,0,0,0,.06,9.36a6.255,6.255,0,0,0,2.055,3.872A.5.5,0,0,0,2.8,13.2l1.39-1.39a.49.49,0,0,0-.011-.713A3.359,3.359,0,0,1,3.08,9.23Z"/>
  <path d="M13.885,2.768a.5.5,0,0,0-.683.03l-1.39,1.39a.49.49,0,0,0,.011.713,3.359,3.359,0,0,1,1.1,1.869A3.494,3.494,0,0,1,9.5,11H9V9.5a.5.5,0,0,0-.31-.46.474.474,0,0,0-.54.11l-3,3a.483.483,0,0,0,0,.7l3,3a.474.474,0,0,0,.54.11A.5.5,0,0,0,9,15.5V14h.5a6.507,6.507,0,0,0,6.44-7.36A6.256,6.256,0,0,0,13.885,2.768Z"/>
</svg>
