<?xml version="1.0" encoding="UTF-8" standalone="no"?><!DOCTYPE svg PUBLIC "-//W3C//DTD SVG 1.1//EN" "http://www.w3.org/Graphics/SVG/1.1/DTD/svg11.dtd"><svg width="100%" height="100%" viewBox="0 0 9 12" version="1.1" xmlns="http://www.w3.org/2000/svg" xmlns:xlink="http://www.w3.org/1999/xlink" xml:space="preserve" xmlns:serif="http://www.serif.com/" style="fill-rule:evenodd;clip-rule:evenodd;stroke-linejoin:round;stroke-miterlimit:2;"><path id="Pause-Icon" serif:id="Pause Icon" d="M8.25,12l-1.5,0c-0.414,0 -0.75,-0.336 -0.75,-0.75l0,-10.5c0,-0.414 0.336,-0.75 0.75,-0.75l1.5,0c0.414,0 0.75,0.336 0.75,0.75l0,10.5c0,0.414 -0.336,0.75 -0.75,0.75Zm-6,0l-1.5,0c-0.414,0 -0.75,-0.336 -0.75,-0.75l0,-10.5c0,-0.414 0.336,-0.75 0.75,-0.75l1.5,0c0.414,0 0.75,0.336 0.75,0.75l0,10.5c0,0.414 -0.336,0.75 -0.75,0.75Z" style="fill:#3b3b3b;"/></svg>