<?xml version="1.0" encoding="UTF-8" standalone="no"?><!DOCTYPE svg PUBLIC "-//W3C//DTD SVG 1.1//EN" "http://www.w3.org/Graphics/SVG/1.1/DTD/svg11.dtd"><svg width="100%" height="100%" viewBox="0 0 17 12" version="1.1" xmlns="http://www.w3.org/2000/svg" xmlns:xlink="http://www.w3.org/1999/xlink" xml:space="preserve" xmlns:serif="http://www.serif.com/" style="fill-rule:evenodd;clip-rule:evenodd;stroke-linejoin:round;stroke-miterlimit:2;"><path id="Volume-Max-Icon" serif:id="Volume Max Icon" d="M14.398,11.892l-0.707,-0.707c1.415,-1.281 2.309,-3.126 2.309,-5.185c0,-2.059 -0.894,-3.904 -2.309,-5.185l0.707,-0.707c1.596,1.462 2.602,3.557 2.602,5.892c0,2.335 -1.006,4.429 -2.602,5.892Zm-1.414,-1.414l-0.707,-0.707c1.054,-0.917 1.723,-2.265 1.723,-3.771c0,-1.507 -0.669,-2.854 -1.723,-3.771l0.707,-0.707c1.234,1.099 2.016,2.695 2.016,4.478c0,1.782 -0.782,3.379 -2.016,4.478Zm-1.414,-1.415l-0.712,-0.711c0.695,-0.549 1.142,-1.398 1.142,-2.352c0,-0.954 -0.447,-1.803 -1.142,-2.352l0.712,-0.712c0.874,0.734 1.43,1.834 1.43,3.064c0,1.23 -0.556,2.33 -1.43,3.063Zm-2.57,2.912c-0.375,-0.054 -0.713,-0.222 -0.972,-0.475l-0.028,0l-3,-3l-3.5,0c-0.828,0 -1.5,-0.672 -1.5,-1.5l0,-2c0,-0.829 0.672,-1.5 1.5,-1.5l3.5,0l3,-3l0.028,0c0.259,-0.253 0.597,-0.421 0.972,-0.475l0,-0.025l0.5,0l0,12l-0.5,0l0,-0.025Z" style="fill:#3b3b3b;"/></svg>